<?xml version="1.0" standalone="no"?>
<svg xmlns:xlink="http://www.w3.org/1999/xlink" id="wave" style="transform:rotate(0deg); transition: 0.3s" viewBox="0 0 1440 230" version="1.1" xmlns="http://www.w3.org/2000/svg"><defs><linearGradient id="sw-gradient-0" x1="0" x2="0" y1="1" y2="0"><stop stop-color="rgba(46.595, 161.3, 238.152, 1)" offset="0%"/><stop stop-color="rgba(52, 152, 219, 0.18)" offset="100%"/></linearGradient></defs><path style="transform:translate(0, 0px); opacity:1" fill="url(#sw-gradient-0)" d="M0,115L80,130.3C160,146,320,176,480,164.8C640,153,800,100,960,76.7C1120,54,1280,61,1440,72.8C1600,84,1760,100,1920,111.2C2080,123,2240,130,2400,141.8C2560,153,2720,169,2880,145.7C3040,123,3200,61,3360,53.7C3520,46,3680,92,3840,95.8C4000,100,4160,61,4320,57.5C4480,54,4640,84,4800,95.8C4960,107,5120,100,5280,115C5440,130,5600,169,5760,164.8C5920,161,6080,115,6240,103.5C6400,92,6560,115,6720,118.8C6880,123,7040,107,7200,99.7C7360,92,7520,92,7680,92C7840,92,8000,92,8160,84.3C8320,77,8480,61,8640,76.7C8800,92,8960,138,9120,145.7C9280,153,9440,123,9600,92C9760,61,9920,31,10080,42.2C10240,54,10400,107,10560,141.8C10720,176,10880,192,11040,172.5C11200,153,11360,100,11440,72.8L11520,46L11520,230L11440,230C11360,230,11200,230,11040,230C10880,230,10720,230,10560,230C10400,230,10240,230,10080,230C9920,230,9760,230,9600,230C9440,230,9280,230,9120,230C8960,230,8800,230,8640,230C8480,230,8320,230,8160,230C8000,230,7840,230,7680,230C7520,230,7360,230,7200,230C7040,230,6880,230,6720,230C6560,230,6400,230,6240,230C6080,230,5920,230,5760,230C5600,230,5440,230,5280,230C5120,230,4960,230,4800,230C4640,230,4480,230,4320,230C4160,230,4000,230,3840,230C3680,230,3520,230,3360,230C3200,230,3040,230,2880,230C2720,230,2560,230,2400,230C2240,230,2080,230,1920,230C1760,230,1600,230,1440,230C1280,230,1120,230,960,230C800,230,640,230,480,230C320,230,160,230,80,230L0,230Z"/><defs><linearGradient id="sw-gradient-1" x1="0" x2="0" y1="1" y2="0"><stop stop-color="rgba(52, 152, 219, 1)" offset="0%"/><stop stop-color="rgba(52, 152, 219, 1)" offset="100%"/></linearGradient></defs><path style="transform:translate(0, 50px); opacity:0.9" fill="url(#sw-gradient-1)" d="M0,115L80,126.5C160,138,320,161,480,164.8C640,169,800,153,960,122.7C1120,92,1280,46,1440,23C1600,0,1760,0,1920,11.5C2080,23,2240,46,2400,72.8C2560,100,2720,130,2880,149.5C3040,169,3200,176,3360,161C3520,146,3680,107,3840,84.3C4000,61,4160,54,4320,53.7C4480,54,4640,61,4800,84.3C4960,107,5120,146,5280,134.2C5440,123,5600,61,5760,53.7C5920,46,6080,92,6240,126.5C6400,161,6560,184,6720,161C6880,138,7040,69,7200,65.2C7360,61,7520,123,7680,130.3C7840,138,8000,92,8160,88.2C8320,84,8480,123,8640,130.3C8800,138,8960,115,9120,118.8C9280,123,9440,153,9600,149.5C9760,146,9920,107,10080,84.3C10240,61,10400,54,10560,61.3C10720,69,10880,92,11040,99.7C11200,107,11360,100,11440,95.8L11520,92L11520,230L11440,230C11360,230,11200,230,11040,230C10880,230,10720,230,10560,230C10400,230,10240,230,10080,230C9920,230,9760,230,9600,230C9440,230,9280,230,9120,230C8960,230,8800,230,8640,230C8480,230,8320,230,8160,230C8000,230,7840,230,7680,230C7520,230,7360,230,7200,230C7040,230,6880,230,6720,230C6560,230,6400,230,6240,230C6080,230,5920,230,5760,230C5600,230,5440,230,5280,230C5120,230,4960,230,4800,230C4640,230,4480,230,4320,230C4160,230,4000,230,3840,230C3680,230,3520,230,3360,230C3200,230,3040,230,2880,230C2720,230,2560,230,2400,230C2240,230,2080,230,1920,230C1760,230,1600,230,1440,230C1280,230,1120,230,960,230C800,230,640,230,480,230C320,230,160,230,80,230L0,230Z"/></svg>